<svg xmlns="http://www.w3.org/2000/svg" viewBox="0 0 140 81.18"><defs><style>.cls-1{fill:#020202;}.cls-2{fill:#fff;}.cls-3{fill:#353434;}.cls-4{fill:#382b1e;}.cls-5{fill:#070707;}</style></defs><title>casette</title><g id="Layer_2" data-name="Layer 2"><g id="Layer_1-2" data-name="Layer 1"><path class="cls-1" d="M135,0H5A5,5,0,0,0,0,5V76.18a5,5,0,0,0,5,5H25L33.21,67.7a2.94,2.94,0,0,1,2.51-1.45h68.56a2.94,2.94,0,0,1,2.51,1.45L115,81.18h20a5,5,0,0,0,5-5V5A5,5,0,0,0,135,0Zm-2.2,58.34a5,5,0,0,1-5,5H11.9a5,5,0,0,1-5-5V13.18a5,5,0,0,1,5-5H127.8a5,5,0,0,1,5,5Z"/><path class="cls-2" d="M50.34,34.74h1.3a6.19,6.19,0,0,0-1.47-3.54l0,0-.43.43-.43.43-.21.21a5.22,5.22,0,0,1-.57-.14,5.22,5.22,0,0,1-.14-.57l.22-.21L49,31l.43-.43,0,0A6.19,6.19,0,0,0,45.92,29v1.6a4.4,4.4,0,0,1-.5.3,4.4,4.4,0,0,1-.5-.3V29a6.26,6.26,0,0,0-3.34,1.31l.14.15.43.43.43.43.21.21a3.52,3.52,0,0,1-.13.57,5.84,5.84,0,0,1-.57.14L41.87,32l-.43-.42L41,31.19,40.84,31a6.16,6.16,0,0,0-1.63,3.72H40.8a4.37,4.37,0,0,1,.31.5,4.37,4.37,0,0,1-.31.5H39.21a6.18,6.18,0,0,0,1.46,3.54l0,0,.42-.43.43-.43a2.18,2.18,0,0,0,.21-.22,3.73,3.73,0,0,1,.57.15,4.05,4.05,0,0,1,.15.57,2.18,2.18,0,0,0-.22.21l-.43.43-.43.43,0,0a6.16,6.16,0,0,0,3.7,1.47l-.16-.1V39.84c0-.1,0-.2,0-.3a3.66,3.66,0,0,1,.5-.3,3.83,3.83,0,0,1,.51.3c0,.1,0,.2,0,.3v1.52l-.16.1a6.24,6.24,0,0,0,4-1.71l-.12,0-.22-.22L49,39.13l-.43-.42c-.07-.07-.13-.15-.21-.22a3.12,3.12,0,0,1,.14-.57,3.91,3.91,0,0,1,.57-.14l.21.22.43.43.43.43.21.21s0,0,0,0a6.21,6.21,0,0,0,1.34-3.38h-1.3c-.1,0-.2,0-.3,0a3.13,3.13,0,0,1-.3-.5,3.83,3.83,0,0,1,.3-.51Z"/><path class="cls-2" d="M69.18,39.5H83.59V31.38H69.16a24.37,24.37,0,0,1,.36,4.12A24,24,0,0,1,69.18,39.5Z"/><path class="cls-2" d="M99.2,34.74h1.29A6.19,6.19,0,0,0,99,31.2l0,0-.42.43-.43.43-.22.21a5.84,5.84,0,0,1-.57-.14,3.52,3.52,0,0,1-.13-.57l.21-.21.43-.43.43-.43,0,0A6.22,6.22,0,0,0,94.78,29v1.6a5.5,5.5,0,0,1-.5.3,4.4,4.4,0,0,1-.5-.3V29.1s0-.05,0-.08a6.26,6.26,0,0,0-3.34,1.31l.15.15.43.43.42.43.22.21a5.22,5.22,0,0,1-.14.57,5.22,5.22,0,0,1-.57.14L90.73,32l-.43-.42-.43-.43L89.69,31a6.16,6.16,0,0,0-1.63,3.72h1.6a4.4,4.4,0,0,1,.3.5,4.4,4.4,0,0,1-.3.5h-1.6a6.19,6.19,0,0,0,1.47,3.54l0,0,.43-.43.43-.43.21-.22a4.44,4.44,0,0,1,.57.15,3.91,3.91,0,0,1,.14.57c-.08.06-.14.14-.22.21l-.43.43-.42.43,0,0a6.13,6.13,0,0,0,3.69,1.47l-.15-.1V39.84c0-.1,0-.2,0-.3a3.83,3.83,0,0,1,.51-.3,4.4,4.4,0,0,1,.5.3c0,.1,0,.2,0,.3v1.52l-.16.1a6.21,6.21,0,0,0,4-1.71l-.12,0-.21-.22-.43-.43-.43-.42-.22-.22a4.25,4.25,0,0,1,.14-.57,4.25,4.25,0,0,1,.57-.14l.22.22.42.43.43.43.22.21a.09.09,0,0,0,0,0,6.19,6.19,0,0,0,1.33-3.38H99.2c-.1,0-.2,0-.31,0a3.13,3.13,0,0,1-.3-.5,3.83,3.83,0,0,1,.3-.51Z"/><path class="cls-2" d="M127.8,8.18H11.9a5,5,0,0,0-5,5V58.34a5,5,0,0,0,5,5H127.8a5,5,0,0,0,5-5V13.18A5,5,0,0,0,127.8,8.18ZM45.42,42.48a7.24,7.24,0,1,1,7.24-7.24A7.25,7.25,0,0,1,45.42,42.48Zm39.17-2H54.5V30.38H84.59Zm9.69,2a7.24,7.24,0,1,1,7.24-7.24A7.25,7.25,0,0,1,94.28,42.48Z"/><path class="cls-3" d="M104.28,66.25H35.72a2.94,2.94,0,0,0-2.51,1.45L25,81.18h90L106.79,67.7A2.94,2.94,0,0,0,104.28,66.25Z"/><path d="M94.28,28a7.24,7.24,0,1,0,7.24,7.24A7.25,7.25,0,0,0,94.28,28Zm4.61,7.74c.11,0,.21,0,.31,0h1.29a6.19,6.19,0,0,1-1.33,3.38.09.09,0,0,1,0,0L99,38.86l-.43-.43L98.1,38l-.22-.22a4.25,4.25,0,0,0-.57.14,4.25,4.25,0,0,0-.14.57l.22.22.43.42.43.43.21.22.12,0a6.21,6.21,0,0,1-4,1.71l.16-.1V39.84c0-.1,0-.2,0-.3a4.4,4.4,0,0,0-.5-.3,3.83,3.83,0,0,0-.51.3c0,.1,0,.2,0,.3v1.52l.15.1A6.13,6.13,0,0,1,90.24,40l0,0,.42-.43.43-.43c.08-.07.14-.15.22-.21a3.91,3.91,0,0,0-.14-.57,4.44,4.44,0,0,0-.57-.15l-.21.22-.43.43-.43.43,0,0a6.19,6.19,0,0,1-1.47-3.54h1.6a4.4,4.4,0,0,0,.3-.5,4.4,4.4,0,0,0-.3-.5h-1.6A6.16,6.16,0,0,1,89.69,31l.18.17.43.43.43.42.21.22a5.22,5.22,0,0,0,.57-.14,5.22,5.22,0,0,0,.14-.57l-.22-.21L91,30.91l-.43-.43-.15-.15A6.26,6.26,0,0,1,93.77,29s0,.06,0,.08v1.52a4.4,4.4,0,0,0,.5.3,5.5,5.5,0,0,0,.5-.3V29a6.22,6.22,0,0,1,3.54,1.47l0,0-.43.43-.43.43-.21.21a3.52,3.52,0,0,0,.13.57,5.84,5.84,0,0,0,.57.14l.22-.21.43-.43.42-.43,0,0a6.19,6.19,0,0,1,1.47,3.54h-1.6a3.83,3.83,0,0,0-.3.51A3.13,3.13,0,0,0,98.89,35.74Z"/><path d="M45.42,28a7.24,7.24,0,1,0,7.24,7.24A7.25,7.25,0,0,0,45.42,28ZM50,35.74c.1,0,.2,0,.3,0h1.3a6.21,6.21,0,0,1-1.34,3.38s0,0,0,0l-.21-.21-.43-.43L49.24,38,49,37.78a3.91,3.91,0,0,0-.57.14,3.12,3.12,0,0,0-.14.57c.08.07.14.15.21.22l.43.42.43.43.22.22.12,0a6.24,6.24,0,0,1-4,1.71l.16-.1V39.84c0-.1,0-.2,0-.3a3.83,3.83,0,0,0-.51-.3,3.66,3.66,0,0,0-.5.3c0,.1,0,.2,0,.3v1.52l.16.1A6.16,6.16,0,0,1,41.38,40l0,0,.43-.43.43-.43a2.18,2.18,0,0,1,.22-.21,4.05,4.05,0,0,0-.15-.57,3.73,3.73,0,0,0-.57-.15,2.18,2.18,0,0,1-.21.22l-.43.43-.42.43,0,0a6.18,6.18,0,0,1-1.46-3.54H40.8a4.37,4.37,0,0,0,.31-.5,4.37,4.37,0,0,0-.31-.5H39.21A6.16,6.16,0,0,1,40.84,31l.18.17.42.43.43.42.22.22a5.84,5.84,0,0,0,.57-.14,3.52,3.52,0,0,0,.13-.57l-.21-.21-.43-.43-.43-.43-.14-.15A6.26,6.26,0,0,1,44.92,29v1.6a4.4,4.4,0,0,0,.5.3,4.4,4.4,0,0,0,.5-.3V29a6.19,6.19,0,0,1,3.54,1.47l0,0L49,31l-.42.43-.22.21a5.22,5.22,0,0,0,.14.57,5.22,5.22,0,0,0,.57.14l.21-.21.43-.43.43-.43,0,0a6.19,6.19,0,0,1,1.47,3.54H50a3.83,3.83,0,0,0-.3.51A3.13,3.13,0,0,0,50,35.74Z"/><path class="cls-4" d="M69.52,35.5a24.37,24.37,0,0,0-.36-4.12H55.5V39.5H69.18A24,24,0,0,0,69.52,35.5Z"/><path class="cls-5" d="M54.5,40.5H84.59V30.38H54.5Zm1-9.12H83.59V39.5H55.5Z"/></g></g></svg>