<svg xmlns="http://www.w3.org/2000/svg" viewBox="0 0 36.13 29.89"><defs><style>.cls-1{fill:#231f20;}.cls-2{fill:#fff;}</style></defs><title>fforward</title><g id="Layer_2" data-name="Layer 2"><g id="Layer_1-2" data-name="Layer 1"><rect class="cls-1" width="36.13" height="29.89" rx="5"/><path class="cls-2" d="M27.74,8.14V21.75a.45.45,0,0,1-.45.45H25.77a.45.45,0,0,1-.45-.45V16l-6.48,5.92a1.21,1.21,0,0,1-2-.93V16l-6.49,5.92a1.21,1.21,0,0,1-2-.93V8.9a1.21,1.21,0,0,1,2-.93l6.49,5.87V8.9a1.21,1.21,0,0,1,2-.93l6.48,5.87V8.14a.45.45,0,0,1,.45-.45h1.52A.45.45,0,0,1,27.74,8.14Z"/></g></g></svg>