<svg xmlns="http://www.w3.org/2000/svg" viewBox="0 0 36.13 29.89"><defs><style>.cls-1{fill:#231f20;}.cls-2{fill:#fff;}</style></defs><title>rewind</title><g id="Layer_2" data-name="Layer 2"><g id="Layer_1-2" data-name="Layer 1"><rect class="cls-1" width="36.13" height="29.89" rx="5"/><path class="cls-2" d="M8.39,7.16v13.6a.45.45,0,0,0,.45.45h1.51a.46.46,0,0,0,.46-.45V15l6.48,5.91a1.21,1.21,0,0,0,2-.93V15l6.49,5.91a1.21,1.21,0,0,0,2-.93V7.91a1.21,1.21,0,0,0-2-.93l-6.49,5.87V7.91a1.21,1.21,0,0,0-2-.93l-6.48,5.87V7.16a.47.47,0,0,0-.46-.46H8.84A.46.46,0,0,0,8.39,7.16Z"/></g></g></svg>